<svg version="1" xmlns="http://www.w3.org/2000/svg" width="1365.333" height="1365.333" viewBox="0 0 1024.000000 1024.000000"><path d="M40 364.1C21.8 368.8 6.6 384.3 1.6 403c-2.1 7.8-2.3 207.2-.2 216.5 2.5 11.5 8.9 21.9 17.7 29.2 1.9 1.5 3.6 3 3.9 3.4 1.7 2.1 10.8 6.2 17.5 7.9 7.7 2 11.2 2 471.9 2h464.2l7.4-2.1c18.5-5.1 33.2-19.8 38-38.3 1.8-6.8 1.9-12.2 1.7-112.1-.2-111.8.1-105.5-5-116.5-2.5-5.4-9.6-14.7-13.3-17.5-1.5-1.1-3.2-2.5-3.8-3-2.4-2.2-7.1-4.8-13.4-7.3l-6.7-2.7-467-.2c-460.7-.2-467.1-.2-474.5 1.8z"/></svg>