<svg version="1" xmlns="http://www.w3.org/2000/svg" width="1365.333" height="1365.333" viewBox="0 0 1024.000000 1024.000000"><path d="M123.2 419.1c-2.6 1.3-5.5 3.9-7 6.2l-2.7 4.1-.3 88.8-.2 88.8h38v-76h38v76h38.1l-.3-88.3c-.3-96.4 0-90.8-6-96.4-5.5-5.2-6.6-5.3-51.5-5.3-40.7 0-41.9.1-46.1 2.1zM189 474v19h-38v-38h38v19zM265 512v95h38v-76h30.3c27.2 0 30.6-.2 34.2-1.9 4.8-2.2 7.9-5.4 10-10.3 1.3-3.2 1.5-10 1.5-45.1 0-40.8 0-41.3-2.2-45.7-1.3-2.4-4-5.8-6.1-7.4l-3.9-3.1-50.9-.3-50.9-.3V512zm76-38v19h-38v-38h38v19zM417 512v95h38v-75.9l31.8-.3 31.7-.3 3.8-2.5c2.3-1.5 4.7-4.5 6.3-7.6l2.5-5.1-.3-43-.3-42.9-2.4-3.6c-1.3-1.9-4-4.6-5.9-5.9l-3.6-2.4-50.8-.3-50.8-.3V512zm76-38v19h-38v-38h38v19zM732.5 418.9c-5 2.2-9.1 6.9-10.5 11.9-.6 2.4-1 33.7-1 89.9V607h38v-76h38v76h38v-87.7c0-87.3 0-87.7-2.1-92.1-1.3-2.6-3.8-5.4-6.2-7l-4.1-2.7-43-.2c-40.1-.3-43.4-.2-47.1 1.6zM797 474v19h-38v-38h38v19zM873 483.5V550h38V417h-38v66.5zM569 512v19h114v-38H569v19zM873 588v19h38v-38h-38v19z"/></svg>